<?xml version="1.0" encoding="iso-8859-1"?>
<!-- Generator: Adobe Illustrator 19.0.0, SVG Export Plug-In . SVG Version: 6.00 Build 0)  -->
<svg version="1.1" id="Capa_1" xmlns="http://www.w3.org/2000/svg" xmlns:xlink="http://www.w3.org/1999/xlink" x="0px" y="0px"
	 viewBox="0 0 512 512" style="enable-background:new 0 0 512 512;" xml:space="preserve">
<path style="fill:#ED5565;" d="M399.984,95.984v8v32v8h-16c-13.2,0-24-10.72-24-24c0-13.2,10.8-24,24-24
	C383.984,95.984,399.984,95.984,399.984,95.984z"/>
<g>
	<polygon style="fill:#5D9CEC;" points="192,224.016 192,272.016 144,264.016 	"/>
	<path style="fill:#5D9CEC;" d="M360,272.016H192v-48c15.52,0,32.32,0,48,0c15.12,0,29.2,0,40,0
		C296,224.016,360,272.016,360,272.016z"/>
</g>
<path style="fill:#4A89DC;" d="M280,224.016c-8.848,0-19.968,0-32,0c16,0,80,48,80,48h32C360,272.016,296,224.016,280,224.016z"/>
<path style="fill:#656D78;" d="M432,371.696c0-11.04-8.96-20-20-20s-20,8.96-20,20s8.96,20,20,20S432,382.736,432,371.696z
	 M412,328.016c24.32,0,44,19.68,44,44c0,4.16-0.56,8.16-1.68,12c-5.2,18.48-22.168,32-42.32,32s-37.12-13.52-42.32-32
	c-1.12-3.84-1.68-7.84-1.68-12C368,347.696,387.68,328.016,412,328.016z"/>
<g>
	<circle style="fill:#CCD1D9;" cx="412" cy="371.68" r="20"/>
	<circle style="fill:#CCD1D9;" cx="108" cy="371.68" r="20"/>
</g>
<path style="fill:#656D78;" d="M64,372.016c0-24.32,19.68-44,44-44s44,19.68,44,44c0,4.16-0.56,8.16-1.68,12
	c-5.2,18.48-22.168,32-42.32,32s-37.12-13.52-42.32-32C64.56,380.168,64,376.168,64,372.016z M88,371.696c0,11.04,8.96,20,20,20
	s20-8.96,20-20s-8.96-20-20-20S88,360.656,88,371.696z"/>
<path style="fill:#CCD1D9;" d="M504,384.016h-49.68c1.12-3.84,1.68-7.84,1.68-12c0-24.32-19.68-44-44-44s-44,19.68-44,44
	c0,4.16,0.56,8.16,1.68,12H150.32c1.12-3.84,1.68-7.84,1.68-12c0-24.32-19.68-44-44-44s-44,19.68-44,44c0,4.16,0.56,8.16,1.68,12H32
	l-24-24v-56l8-8v-24h40c0,0,96-48,128-48c2.64,0,5.28,0,8,0l-48,40l48,8h168c104,8,144,24.16,144,24.16l-8,7.84l8,16V384.016z"/>
<g>
	<polygon style="fill:#AAB2BD;" points="479.344,289.016 479.368,289.016 479.368,289.016 	"/>
	<path style="fill:#AAB2BD;" d="M504,296.168c0,0-7.576-3.056-24.632-7.16L464,304.016l8,16v64h32v-64l-8-16L504,296.168z"/>
</g>
<path d="M412,399.664c-15.44,0-28-12.56-28-28s12.56-28,28-28s28,12.56,28,28S427.44,399.664,412,399.664z M412,359.664
	c-6.616,0-12,5.384-12,12s5.384,12,12,12s12-5.384,12-12S418.616,359.664,412,359.664z"/>
<path d="M412,424c-28.672,0-52-23.328-52-52s23.328-52,52-52s52,23.328,52,52S440.672,424,412,424z M412,336
	c-19.848,0-36,16.152-36,36s16.152,36,36,36s36-16.152,36-36S431.848,336,412,336z"/>
<path d="M108,399.664c-15.44,0-28-12.56-28-28s12.56-28,28-28s28,12.56,28,28S123.44,399.664,108,399.664z M108,359.664
	c-6.616,0-12,5.384-12,12s5.384,12,12,12s12-5.384,12-12S114.616,359.664,108,359.664z"/>
<path d="M108,424c-28.672,0-52-23.328-52-52s23.328-52,52-52s52,23.328,52,52S136.672,424,108,424z M108,336
	c-19.848,0-36,16.152-36,36s16.152,36,36,36s36-16.152,36-36S127.848,336,108,336z"/>
<path d="M504,392h-49.664c-4.424,0-8-3.576-8-8s3.576-8,8-8H496v-54.112l-7.16-14.312c-1.256-2.512-1.088-5.456,0.344-7.768
	c-18.4-5.152-59.288-14.416-129.808-19.832c-1.512-0.12-2.968-0.664-4.176-1.576C325.32,255.992,287.968,232,280,232h-96
	c-24.688,0-98.184,34.04-124.424,47.16C58.472,279.712,57.24,280,56,280H24v16c0,2.128-0.84,4.16-2.344,5.656L16,307.312v49.376
	l21.656,21.656c3.128,3.128,3.128,8.184,0,11.312s-8.184,3.128-11.312,0l-24-24C0.84,364.16,0,362.128,0,360v-56
	c0-2.128,0.84-4.16,2.344-5.656L8,292.688V272c0-4.424,3.576-8,8-8h38.12c15.76-7.816,98.352-48,129.88-48h96
	c16.68,0,65.496,35.208,82.928,48.2c102.328,8.064,142.392,23.832,144.064,24.504c2.504,1.008,4.328,3.208,4.848,5.848
	c0.528,2.648-0.312,5.384-2.232,7.272l-3.848,3.8l5.4,10.8c0.552,1.104,0.84,2.336,0.84,3.576v64C512,388.424,508.424,392,504,392z"
	/>
<path d="M369.664,392H150.336c-4.424,0-8-3.576-8-8s3.576-8,8-8h219.328c4.424,0,8,3.576,8,8S374.088,392,369.664,392z"/>
<path d="M360,280H192c-0.44,0-0.88-0.04-1.312-0.112l-48-8c-3.088-0.512-5.592-2.784-6.408-5.8c-0.824-3.016,0.192-6.232,2.592-8.24
	l48-40c3.408-2.824,8.44-2.368,11.272,1.024c2.832,3.4,2.368,8.448-1.024,11.272l-34.6,28.832L192.664,264H360c4.424,0,8,3.576,8,8
	S364.424,280,360,280z"/>
<path d="M208,312h-16c-4.424,0-8-3.576-8-8s3.576-8,8-8h16c4.424,0,8,3.576,8,8S212.424,312,208,312z"/>
<path d="M65.664,392H32c-4.424,0-8-3.576-8-8s3.576-8,8-8h33.664c4.424,0,8,3.576,8,8S70.088,392,65.664,392z"/>
<path d="M192,280c-4.424,0-8-3.576-8-8v-48c0-4.424,3.576-8,8-8s8,3.576,8,8v48C200,276.424,196.424,280,192,280z"/>
<path d="M232,232c-4.424,0-8-3.576-8-8v-24c0-4.424,3.576-8,8-8s8,3.576,8,8v24C240,228.424,236.424,232,232,232z"/>
<path d="M232,208c-4.424,0-8-3.576-8-8c0-13.232,10.768-24,24-24c4.424,0,8,3.576,8,8s-3.576,8-8,8c-4.416,0-8,3.584-8,8
	C240,204.424,236.424,208,232,208z"/>
<path d="M272,192h-24c-4.424,0-8-3.576-8-8s3.576-8,8-8h24c4.424,0,8,3.576,8,8S276.424,192,272,192z"/>
<path d="M272,192c-4.424,0-8-3.576-8-8s3.576-8,8-8c4.416,0,8-3.584,8-8s-3.584-8-8-8c-4.424,0-8-3.576-8-8s3.576-8,8-8
	c13.232,0,24,10.768,24,24S285.232,192,272,192z"/>
<path d="M144,160.032c-13.232,0-24-10.768-24-24s10.768-24,24-24c4.424,0,8,3.576,8,8s-3.576,8-8,8c-4.416,0-8,3.584-8,8
	s3.584,8,8,8c4.424,0,8,3.576,8,8S148.424,160.032,144,160.032z"/>
<path d="M272,160H144c-4.424,0-8-3.576-8-8s3.576-8,8-8h128c4.424,0,8,3.576,8,8S276.424,160,272,160z"/>
<path d="M144,128.032c-4.416,0-8-3.576-8-8c0-4.416,3.576-8,8-8L360,112c4.416,0,8,3.576,8,8c0,4.416-3.576,8-8,8L144,128.032z"/>
<path d="M384,152c-17.648,0-32-14.352-32-32s14.352-32,32-32c4.424,0,8,3.576,8,8s-3.576,8-8,8c-8.824,0-16,7.176-16,16
	s7.176,16,16,16c4.424,0,8,3.576,8,8S388.424,152,384,152z"/>
<path d="M416,112h-16c-4.424,0-8-3.576-8-8s3.576-8,8-8h16c4.424,0,8,3.576,8,8S420.424,112,416,112z"/>
<path d="M416,144h-16c-4.424,0-8-3.576-8-8s3.576-8,8-8h16c4.424,0,8,3.576,8,8S420.424,144,416,144z"/>
<path d="M400,152c-4.424,0-8-3.576-8-8V96c0-4.424,3.576-8,8-8s8,3.576,8,8v48C408,148.424,404.424,152,400,152z"/>
<path d="M400,152h-16c-4.424,0-8-3.576-8-8s3.576-8,8-8h16c4.424,0,8,3.576,8,8S404.424,152,400,152z"/>
<path d="M400,104h-16c-4.424,0-8-3.576-8-8s3.576-8,8-8h16c4.424,0,8,3.576,8,8S404.424,104,400,104z"/>
<g>
</g>
<g>
</g>
<g>
</g>
<g>
</g>
<g>
</g>
<g>
</g>
<g>
</g>
<g>
</g>
<g>
</g>
<g>
</g>
<g>
</g>
<g>
</g>
<g>
</g>
<g>
</g>
<g>
</g>
</svg>
